<?xml version="1.0" encoding="UTF-8"?>
<svg width="15px" height="15px" viewBox="0 0 15 15" version="1.1" xmlns="http://www.w3.org/2000/svg" xmlns:xlink="http://www.w3.org/1999/xlink">
    <!-- Generator: Sketch 51.1 (57501) - http://www.bohemiancoding.com/sketch -->
    <title>phone-call</title>
    <desc>Created with Sketch.</desc>
    <defs></defs>
    <g id="Page-1" stroke="none" stroke-width="1" fill="none" fill-rule="evenodd">
        <g id="Главная-1" transform="translate(-1364.000000, -55.000000)" fill="#FFFFFF" fill-rule="nonzero">
            <g id="phone-call" transform="translate(1364.000000, 55.000000)">
                <path d="M11.925688,9.2781138 C11.6164775,8.95758662 11.2435124,8.78621565 10.8482331,8.78621565 C10.4561415,8.78621565 10.0799886,8.95441308 9.75802723,9.27494026 L8.75070253,10.2746042 C8.66782138,10.2301747 8.58494024,10.1889188 8.50524683,10.1476628 C8.39048832,10.0905391 8.28210528,10.036589 8.18966092,9.97946535 C7.24609095,9.3828405 6.38858986,8.60532407 5.56615387,7.59931302 C5.16768682,7.09789427 4.89991696,6.67581392 4.70546504,6.2473865 C4.96685942,6.00937127 5.20912739,5.76183542 5.44501988,5.52382019 C5.5342765,5.43496117 5.62353312,5.34292861 5.71278974,5.25406959 C6.38221439,4.58762694 6.38221439,3.72442503 5.71278974,3.05798238 L4.84253771,2.19160693 C4.74371788,2.0932273 4.64171031,1.99167413 4.54607822,1.89012097 C4.35481404,1.69336171 4.15398664,1.49025538 3.94678378,1.29984319 C3.63757335,0.995183692 3.26779593,0.833333333 2.87889208,0.833333333 C2.48998824,0.833333333 2.11383535,0.995183692 1.79506171,1.29984319 C1.79187397,1.30301673 1.79187397,1.30301673 1.78868624,1.30619026 L0.704855862,2.39471326 C0.296825603,2.80092593 0.0641208461,3.29599761 0.0131170637,3.87040771 C-0.0633886098,4.79708035 0.21075672,5.66028226 0.421147323,6.22517174 C0.937560619,7.61200717 1.70899283,8.89728943 2.85976567,10.2746042 C4.25599421,11.9343638 5.93593129,13.2450343 7.8549486,14.1685335 C8.58812797,14.5144489 9.56676305,14.9238351 10.6601566,14.9936529 C10.7270991,14.9968265 10.7972293,15 10.860984,15 C11.5973511,15 12.215772,14.7365965 12.7003079,14.212963 C12.7034957,14.2066159 12.7098711,14.2034424 12.7130589,14.1970953 C12.8788212,13.9971625 13.0700853,13.8162709 13.2709127,13.6226852 C13.4079854,13.4925702 13.5482458,13.3561081 13.6853185,13.213299 C14.0009044,12.8864247 14.1666667,12.5056004 14.1666667,12.1152554 C14.1666667,11.7217369 13.9977166,11.344086 13.6757553,11.0267324 L11.925688,9.2781138 Z M13.0668976,12.6198477 C13.0637099,12.6198477 13.0637099,12.6230212 13.0668976,12.6198477 C12.9425759,12.7531362 12.8150664,12.8737306 12.6779938,13.0070191 C12.4707909,13.2037784 12.2604003,13.4100582 12.0627606,13.6417264 C11.7407993,13.9844683 11.3614586,14.1463187 10.8641718,14.1463187 C10.8163557,14.1463187 10.7653519,14.1463187 10.7175359,14.1431452 C9.77077818,14.082848 8.89096293,13.7147177 8.2311015,13.4005376 C6.42684269,12.5309886 4.84253771,11.296483 3.52600257,9.73192951 C2.43898446,8.42760603 1.71218056,7.22166219 1.23083237,5.92685932 C0.934372882,5.13664875 0.825989845,4.52098268 0.873805891,3.94022551 C0.905683255,3.56892174 1.04913139,3.26108871 1.31371351,2.99768519 L2.40073163,1.91550926 C2.55693071,1.76952658 2.722693,1.69018817 2.88526756,1.69018817 C3.08609495,1.69018817 3.24866951,1.81078256 3.35067707,1.91233572 C3.35386481,1.91550926 3.35705254,1.9186828 3.36024028,1.92185633 C3.5546922,2.10274791 3.73958091,2.28998656 3.93403283,2.48991935 C4.03285266,2.59147252 4.13486023,2.69302569 4.23686779,2.79775239 L5.10711983,3.66412784 C5.44501988,4.0005227 5.44501988,4.31152927 5.10711983,4.64792413 C5.01467547,4.73995669 4.92541885,4.83198925 4.8329745,4.92084827 C4.56520464,5.1937724 4.31018573,5.44765532 4.03285266,5.69519116 C4.02647719,5.70153823 4.02010171,5.70471177 4.01691398,5.71105884 C3.74276865,5.98398297 3.79377243,6.25056004 3.85115169,6.43145161 C3.85433942,6.44097222 3.85752716,6.45049283 3.86071489,6.46001344 C4.08704418,7.00586171 4.40581782,7.51997461 4.89035375,8.13246714 L4.89354149,8.13564068 C5.77335673,9.21464307 6.70098802,10.0556302 7.72425141,10.6998581 C7.8549486,10.7823701 7.98883353,10.8490143 8.11634299,10.9124851 C8.2311015,10.9696087 8.33948453,11.0235588 8.43192889,11.0806825 C8.44467983,11.0870296 8.45743078,11.0965502 8.47018173,11.1028973 C8.57856476,11.1568474 8.68057233,11.1822357 8.78576763,11.1822357 C9.05034975,11.1822357 9.21611204,11.0172118 9.27030356,10.9632616 L10.3605094,9.87791219 C10.4688924,9.77001195 10.6410302,9.63989695 10.8418576,9.63989695 C11.0394973,9.63989695 11.2020718,9.76366487 11.3008916,9.87156511 C11.3040794,9.87473865 11.3040794,9.87473865 11.3072671,9.87791219 L13.0637099,11.6265308 C13.3920467,11.9502315 13.3920467,12.2834528 13.0668976,12.6198477 Z" id="Shape"></path>
                <path d="M7.88910308,3.43782741 C8.80651589,3.59190982 9.63989088,4.02614206 10.3051902,4.69149791 C10.9704896,5.35685377 11.4011834,6.19029953 11.5587543,7.10779023 C11.5972716,7.33891385 11.7968614,7.5 12.0244639,7.5 C12.0524765,7.5 12.0769875,7.49649813 12.1050001,7.49299625 C12.3641167,7.45097378 12.5356939,7.20584267 12.493675,6.94670408 C12.3045899,5.83661036 11.7793536,4.82456909 10.9774928,4.02264019 C10.1756319,3.22071129 9.1636766,2.69543035 8.05367713,2.50632921 C7.79456054,2.46430673 7.55295182,2.63589851 7.50743134,2.89153523 C7.46191086,3.14717195 7.62998649,3.39580493 7.88910308,3.43782741 Z" id="Shape"></path>
                <path d="M14.9931299,6.9790874 C14.6960493,5.23603368 13.8749049,3.64992158 12.6131466,2.38771027 C11.3513883,1.12549896 9.76584538,0.304059853 8.0234172,0.0068725339 C7.77974429,-0.0365368498 7.54942332,0.130422318 7.50602952,0.374182704 C7.4659737,0.621282273 7.62953496,0.851685925 7.87654586,0.895095308 C9.43204688,1.15889079 10.8506905,1.89685032 11.9789295,3.02215511 C13.1071684,4.15079909 13.8415251,5.56995202 14.1052259,7.12601146 C14.1419438,7.34639757 14.3322089,7.5 14.5491779,7.5 C14.5758818,7.5 14.5992477,7.49666082 14.6259516,7.49332163 C14.8696245,7.45659062 15.0365237,7.22284778 14.9931299,6.9790874 Z" id="Shape"></path>
            </g>
        </g>
    </g>
</svg>