<svg xmlns="http://www.w3.org/2000/svg" viewBox="0 0 264.04 106.25"><defs><style>.cls-1{fill:#fff;}</style></defs><title>Ресурс 1</title><g id="Слой_2" data-name="Слой 2"><g id="Layer_1" data-name="Layer 1"><path class="cls-1" d="M0,23.66C1.14,20.12,3.78,18,7,16.48c4.43-2.11,9.06-3.11,13.93-1.89A15.48,15.48,0,0,1,27.35,18c2.7,2.37,3.38,5.36,2.58,8.76a36,36,0,0,1-4.14,9.29c-.51.91-.51.91.54,1.1A122,122,0,0,0,41.4,38.76c10.41.57,20.82.6,31.24.33,3.62-.09,7.25-.24,10.87-.36.22,0,.43,0,.65,0s.54.15.54.48a.51.51,0,0,1-.52.52c-.57,0-1.13.1-1.7.12-10,.39-20.07.36-30.11.11-5.81-.14-11.63-.35-17.43-.74-3-.2-6-.45-9-.77a1.91,1.91,0,0,0-2.24,1.1c-1.94,3.53-4.34,6.79-6,10.49a43,43,0,0,0-3.88,21.4c1.38,16,9.84,26.76,24.81,32.45.83.32,1.69.56,2.54.85.5.17,1.07.37.85,1s-.72.51-1.23.38c-8.28-2.1-15.76-5.67-21.76-11.91A33.52,33.52,0,0,1,9.59,73.33c-.89-10.41,2.18-19.69,8.22-28.09,1.53-2.13,3-4.29,4.55-6.42.4-.56.26-.67-.37-.74A49.14,49.14,0,0,1,9.07,35.5,16,16,0,0,1,1.86,30.3,14.2,14.2,0,0,1,0,26.74ZM14.15,15c-.5,0-1.2.1-1.9.17a10.93,10.93,0,0,0-9.71,8.28A6.71,6.71,0,0,0,5.1,30.89a13.81,13.81,0,0,0,4.06,2.18,100.85,100.85,0,0,0,14.16,3.42.67.67,0,0,0,.79-.38,57.49,57.49,0,0,0,3-5.64A9.9,9.9,0,0,0,24.43,18.7,15.64,15.64,0,0,0,14.15,15Z"/><path class="cls-1" d="M91.05,39.55c-1.65.05-1.65.05-2.14-1.29-1.29-3.47-2.57-6.94-3.88-10.4a1.47,1.47,0,0,1,.07-1.36q6.92-13,13.81-26c.28-.54.46-.67,1-.29q10.27,6.9,20.59,13.73c.48.32.58.52.24,1q-7.57,11.58-15.09,23.19c-.19.29-.34.55-.79.58C100.22,39,95.55,39.29,91.05,39.55Zm3.59-11.69a3.78,3.78,0,0,0-3.89,3.71,3.8,3.8,0,1,0,7.59.13A3.8,3.8,0,0,0,94.64,27.86Z"/><path class="cls-1" d="M202.07,58.09c-.16.23-.08.48-.08.71q0,8.93,0,17.86a19.31,19.31,0,0,0,.46,4.51A3.59,3.59,0,0,0,205.2,84l2.67.66c.85.21.31.88.42,1.33s-.26.47-.6.47H194.38c-.36,0-.71,0-.6-.5s-.43-1.12.45-1.32c.71-.16,1.42-.32,2.13-.52,2.06-.6,2.81-1.52,3-3.68a35.94,35.94,0,0,0,.17-3.89q0-8.48,0-17c0-3.77-1.15-5.33-4.75-6.45L194,53a1.2,1.2,0,0,1-.84-1.65c.09-.25.27-.23.45-.23,3.08,0,6.17,0,9.25,0,.49,0,.64.35.85.64l18.78,25.47.54.7c.26-.19.15-.43.15-.62q0-8.2,0-16.4a19.74,19.74,0,0,0-.47-4.67,3.21,3.21,0,0,0-2.34-2.54,27.46,27.46,0,0,0-3-.78c-.9-.16-.36-.86-.47-1.3s.24-.5.6-.5h13.23c.39,0,.68.09.55.53s.46,1.14-.48,1.28a22.89,22.89,0,0,0-2.6.62A3,3,0,0,0,226,56a15.52,15.52,0,0,0-.35,3.14q0,13.27,0,26.54c0,.38.3.91-.27,1.13a2.54,2.54,0,0,1-2.24-.43l-7.87-10.63L202.6,58.67C202.45,58.47,202.34,58.2,202.07,58.09Z"/><path class="cls-1" d="M248.67,86.5H234.79c-.35,0-.92.21-.81-.51.08-.5-.42-1.31.72-1.31a12.38,12.38,0,0,0,2.09-.28A2.36,2.36,0,0,0,239,81.78c0-1.57,0-3.14,0-4.71q0-10.23,0-20.46c0-2.1-.46-2.72-2.49-3.29a9.15,9.15,0,0,0-1.9-.41c-1.07-.06-.56-.83-.65-1.31-.12-.7.44-.52.8-.52q12.91,0,25.81,0c.63,0,.83.16.81.81,0,2.3,0,4.6,0,6.9,0,.29.22.84-.37.78s-1.33.45-1.65-.47a12.77,12.77,0,0,0-2.57-4.19,4.7,4.7,0,0,0-3.42-1.76c-2.84-.16-5.68,0-8.52-.1-.38,0-.52.11-.52.5q0,6.54,0,13.07c0,.43.16.56.58.55,1.65-.05,3.3.06,4.95-.1a4,4,0,0,0,3.42-2.48A8.6,8.6,0,0,0,254,62c.08-.62.35-.71.89-.69,1.29.05,1.1-.16,1.1,1.14,0,4,0,8,0,11.93,0,.4.09.91-.56.79s-1.29.46-1.4-.65a9.4,9.4,0,0,0-.9-3,3.73,3.73,0,0,0-3.06-2.24,50.22,50.22,0,0,0-5.27-.14c-.41,0-.5.18-.5.54,0,3.87,0,7.74.06,11.61,0,1.92.8,2.82,2.65,3a33.37,33.37,0,0,0,9.46-.2,3.67,3.67,0,0,0,2.39-1.53,29.44,29.44,0,0,0,3.18-5.91,1.67,1.67,0,0,1,1.85-.49c.17.15.1.35.09.53-.19,3.05-.41,6.1-.58,9.15,0,.61-.29.67-.8.67C258,86.49,253.33,86.5,248.67,86.5Z"/><path class="cls-1" d="M133.35,70.57h7.06c.32,0,.82-.12.7.46s.48,1.26-.53,1.41a18.44,18.44,0,0,0-1.83.33,2.52,2.52,0,0,0-2.2,2.78c0,2.71,0,5.41.07,8.12,0,.4,0,.64-.45.81a31.79,31.79,0,0,1-12.48,2.86,16.83,16.83,0,0,1-16.81-13.48,20.57,20.57,0,0,1,1.93-14.63,17.42,17.42,0,0,1,17.14-8.87,17.77,17.77,0,0,1,6.76,2.09c.51.28.78.24,1-.28a1.62,1.62,0,0,1,2-1.1c.55.05.73.18.74.74,0,3.46.12,6.93.16,10.39,0,.41.25,1-.16,1.18a4.24,4.24,0,0,1-1.68,0c-.33,0-.27-.37-.33-.58a27.36,27.36,0,0,0-1.72-4.71,9.57,9.57,0,0,0-5.88-5.36,10.14,10.14,0,0,0-10.89,3.57,17.35,17.35,0,0,0-3.27,8.86,24.27,24.27,0,0,0,1.24,11.9c1.38,3.53,3.61,6.3,7.35,7.49a11.47,11.47,0,0,0,9.19-.86,1.74,1.74,0,0,0,1.06-1.56,64.77,64.77,0,0,0,0-6.73c-.06-1.5-.69-2.14-2.17-2.55a19.17,19.17,0,0,0-3.12-.49c-1-.11-.42-.86-.54-1.31s.25-.53.64-.53Z"/><path class="cls-1" d="M98.21,86.49c-2.22,0-4.44,0-6.65,0-.51,0-.78-.12-.69-.67s-.32-1.12.64-1.15a10.24,10.24,0,0,0,3-.59,1.06,1.06,0,0,0,.78-1.44c-.16-.57-.37-1.13-.58-1.68-.74-2-1.51-4-2.23-6.09a.84.84,0,0,0-.94-.66c-3.71,0-7.41,0-11.12,0-.36,0-.68,0-.84.44a47.86,47.86,0,0,0-2.23,7A1.71,1.71,0,0,0,78.66,84a10.15,10.15,0,0,0,3.16.68c1,.05.48.77.58,1.2s-.18.62-.65.61c-4,0-8,0-12,0-.36,0-.79,0-.66-.51s-.46-1.2.55-1.31c2.78-.31,4.41-2,5.39-4.51,3.71-9.6,7.48-19.17,11.2-28.77a1.12,1.12,0,0,1,1.31-.84c.66,0,1.08.06,1.38.85C92.63,61.2,96.44,71,100.18,80.75A5.54,5.54,0,0,0,105,84.67c1.07.13.49.88.58,1.35.12.65-.43.46-.76.47C102.59,86.5,100.4,86.5,98.21,86.49ZM86,58.39a1.34,1.34,0,0,0-.2.25q-2.49,6.46-5,12.92c-.23.6.16.48.46.48,3.08,0,6.16,0,9.25,0,.66,0,.79-.12.53-.75-.92-2.27-1.81-4.57-2.7-6.85Z"/><path class="cls-1" d="M54.25,51.08c4.87,0,9.74,0,14.61,0,.68,0,.86.19.85.86,0,2.68,0,5.36,0,8,0,.27.18.77-.37.69s-1.16.42-1.45-.42a17,17,0,0,0-3.1-5.47,4,4,0,0,0-3.19-1.66c-1.38,0-2.76,0-4.14-.08-.38,0-.55.13-.52.51,0,.16,0,.32,0,.49q0,13.39,0,26.78c0,.3,0,.6,0,.89a2.43,2.43,0,0,0,2,2.38,18.68,18.68,0,0,0,3.18.63c1,.1.41.81.53,1.24s-.2.56-.62.56q-7.75,0-15.5,0c-.56,0-.66-.26-.58-.69s-.36-1.08.57-1.13a25.63,25.63,0,0,0,2.66-.31,2.54,2.54,0,0,0,2.48-2.85q0-13.92,0-27.84c0-.52-.14-.71-.68-.69-1.49.05-3,0-4.46.14a3.46,3.46,0,0,0-2.26,1.13A16.28,16.28,0,0,0,40.77,60a1.54,1.54,0,0,1-1.83.65c-.19-.13-.12-.34-.12-.53,0-2.81,0-5.63,0-8.44,0-.66.34-.6.76-.6Z"/><path class="cls-1" d="M157.37,86.5H144.3c-.42,0-.88.06-.74-.59.1-.45-.41-1.2.64-1.23a12.44,12.44,0,0,0,2.17-.29,2.21,2.21,0,0,0,1.9-2.2c0-.35,0-.7,0-1.05q0-12.09,0-24.19c0-2.42-.45-3-2.75-3.7a8,8,0,0,0-1.42-.33c-.45,0-.59-.22-.58-.66,0-1.44-.09-1.16,1.16-1.16q6.45,0,12.91,0c.36,0,1-.25.88.53-.06.53.35,1.29-.75,1.3a13.19,13.19,0,0,0-2.14.42,2.22,2.22,0,0,0-1.93,2.1,8,8,0,0,0-.06,1.05q0,11.61,0,23.21a17.67,17.67,0,0,0,.14,2.51,2.15,2.15,0,0,0,2,2.13,23.87,23.87,0,0,0,8.63-.26,3.52,3.52,0,0,0,2.1-1.41A34.24,34.24,0,0,0,170,76.57a1.62,1.62,0,0,1,1.83-.57c.19.14.13.34.12.52-.22,3.18-.45,6.37-.66,9.55,0,.6-.47.41-.78.41Z"/><path class="cls-1" d="M182.57,51.08c2.43,0,4.87,0,7.31,0,.5,0,.79.1.7.67s.31,1.14-.65,1.15a11,11,0,0,0-2.87.48,2.15,2.15,0,0,0-1.79,2.29c0,.76,0,1.51,0,2.27q0,11.61,0,23.22c0,2,.55,2.68,2.45,3.13.79.19,1.59.31,2.39.43s.36.8.47,1.21,0,.59-.51.59q-7.47,0-14.94,0c-.39,0-.5-.14-.52-.52-.07-1.21-.08-1.2,1.07-1.31a22.37,22.37,0,0,0,2.33-.29A2.18,2.18,0,0,0,179.92,82q0-13,0-26.06a2.07,2.07,0,0,0-1.65-2.3,12.24,12.24,0,0,0-3.06-.77c-1-.11-.5-.83-.59-1.29s.36-.53.73-.53Z"/></g></g></svg>