<svg width="15" height="15" xmlns="http://www.w3.org/2000/svg"><g fill="#FFF"><path d="M11.926 9.278c-.31-.32-.682-.492-1.078-.492-.392 0-.768.168-1.09.489l-1.007 1c-.083-.045-.166-.086-.246-.127a3.62 3.62 0 0 1-.315-.169c-.944-.596-1.801-1.374-2.624-2.38-.398-.501-.666-.923-.86-1.352.26-.238.503-.485.739-.723.09-.089.179-.181.268-.27.67-.666.67-1.53 0-2.196l-.87-.866c-.1-.099-.201-.2-.297-.302a15.02 15.02 0 0 0-.6-.59C3.639.995 3.269.833 2.88.833s-.765.162-1.084.467l-.006.006L.705 2.395A2.32 2.32 0 0 0 .013 3.87c-.076.927.198 1.79.408 2.355.517 1.387 1.288 2.672 2.439 4.05a14.992 14.992 0 0 0 4.995 3.894c.733.345 1.712.755 2.805.825.067.003.137.006.201.006.736 0 1.355-.263 1.84-.787.002-.006.009-.01.012-.016.166-.2.357-.38.558-.574.137-.13.277-.267.414-.41.316-.327.482-.707.482-1.098 0-.393-.17-.77-.491-1.088l-1.75-1.749zm1.14 3.342c-.002 0-.002.003 0 0-.123.133-.25.254-.388.387a8.361 8.361 0 0 0-.615.635c-.322.342-.702.504-1.199.504-.048 0-.099 0-.146-.003-.947-.06-1.827-.428-2.487-.742a14.151 14.151 0 0 1-4.705-3.67c-1.087-1.303-1.814-2.51-2.295-3.804C.934 5.137.826 4.52.874 3.94c.032-.371.175-.679.44-.942L2.4 1.916c.156-.146.322-.226.484-.226.201 0 .364.12.466.222l.01.01c.194.18.379.368.573.568l.303.308.87.866c.338.337.338.648 0 .984-.092.092-.182.184-.274.273-.268.273-.523.527-.8.774-.007.007-.013.01-.016.016-.274.273-.223.54-.166.72l.01.029c.226.546.545 1.06 1.03 1.672l.003.004c.88 1.079 1.807 1.92 2.83 2.564.13.082.265.149.392.212.115.058.223.112.316.169.013.006.025.016.038.022.109.054.21.08.316.08.264 0 .43-.166.484-.22l1.09-1.085c.109-.108.281-.238.482-.238.197 0 .36.124.459.232l.006.006 1.757 1.749c.328.323.328.656.003.993zM7.89 3.438a4.44 4.44 0 0 1 2.415 1.253 4.464 4.464 0 0 1 1.254 2.417.47.47 0 0 0 .465.392c.028 0 .053-.004.081-.007a.473.473 0 0 0 .389-.546 5.401 5.401 0 0 0-1.517-2.924 5.4 5.4 0 0 0-2.923-1.517.475.475 0 0 0-.547.386.468.468 0 0 0 .382.546z"/><path d="M14.993 6.98a8.474 8.474 0 0 0-2.38-4.592A8.469 8.469 0 0 0 8.023.007a.449.449 0 0 0-.517.367.453.453 0 0 0 .37.521 7.583 7.583 0 0 1 4.103 2.127 7.566 7.566 0 0 1 2.126 4.104c.037.22.227.374.444.374a.442.442 0 0 0 .444-.52z"/></g></svg>